# xmcd
#
# Track frame offsets:
#       150
#       10317
#       26597
#       37725
#       50677
#       66075
#       76165
#       87920
#       98775
#       112405
#       128590
#       141537
#
# Disc length: 2031 seconds
#
# Revision: 2
# Processed by: cddbd v1.5PL3 Copyright (c) Steve Scherf et al.
# Submitted via: CD-DA_X-Tractor v0.24
#
DISCID=9d07ed0c
DTITLE=Alec Beckett - Keepin It Country
DYEAR=1900
DGENRE=
TTITLE0=Keepin It Country
TTITLE1=Where Country Is
TTITLE2=Before I Met You
TTITLE3=Big Gulf Rivers
TTITLE4=Branded Man
TTITLE5=Tennessee Eyes
TTITLE6=Hello Mary Lou
TTITLE7=Bed Of Roses
TTITLE8=I'll Break Out Again Tonight
TTITLE9=Crystal Chandeliers
TTITLE10=A Thousand Years Ago
TTITLE11=Turn Out The Lights
EXTD=
EXTT0=
EXTT1=
EXTT2=
EXTT3=
EXTT4=
EXTT5=
EXTT6=
EXTT7=
EXTT8=
EXTT9=
EXTT10=
EXTT11=
PLAYORDER=
